<svg width="6" height="6" viewBox="0 0 6 6" fill="none" xmlns="http://www.w3.org/2000/svg">
<path d="M2.68804 1.07874C2.82108 0.669273 3.40038 0.669272 3.53342 1.07874L3.80922 1.92756C3.86872 2.11068 4.03937 2.23466 4.23191 2.23466H5.12441C5.55495 2.23466 5.73396 2.7856 5.38564 3.03867L4.6636 3.56326C4.50783 3.67644 4.44265 3.87705 4.50215 4.06017L4.77794 4.90898C4.91099 5.31845 4.44233 5.65895 4.09401 5.40589L3.37197 4.88129C3.2162 4.76811 3.00527 4.76811 2.84949 4.88129L2.12745 5.40588C1.77913 5.65895 1.31047 5.31845 1.44352 4.90898L1.71932 4.06017C1.77882 3.87705 1.71363 3.67644 1.55786 3.56326L0.835819 3.03867C0.487501 2.7856 0.666512 2.23466 1.09706 2.23466H1.98955C2.1821 2.23466 2.35274 2.11068 2.41224 1.92756L2.68804 1.07874Z" fill="#FFC806"/>
</svg>
